#N canvas 546 166 835 320 10;
#X obj 137 157 osc~;
#X obj 177 215 *~;
#X obj 335 198 vline~;
#X floatatom 137 61 5 0 0 0 - - -;
#X obj 355 141 vline~;
#X obj 177 158 *~;
#X obj 87 131 osc~;
#X obj 87 159 *~;
#X obj 37 115 +~ 1;
#X obj 37 88 osc~ 2;
#X obj 87 77 mtof;
#X obj 87 104 * 2.756;
#X obj 177 77 mtof;
#X obj 177 104 * 5.404;
#X obj 177 131 osc~;
#X obj 137 130 mtof;
#X obj 37 142 *~ 0.1;
#X msg 355 114 0.2 0 \, 0.1 0 100 \, 0 3500 100;
#X msg 335 171 0.4 5 \, 0.3 0 100 \, 0 2500 100;
#X obj 227 77 mtof;
#X obj 227 104 * 8.933;
#X obj 227 131 osc~;
#X obj 227 158 *~ 0.1;
#X obj 137 34 note;
#X obj 137 7 inlet;
#X obj 177 252 throw~;
#X obj 335 51 bang;
#X connect 0 0 1 0;
#X connect 1 0 25 0;
#X connect 2 0 1 1;
#X connect 3 0 10 0;
#X connect 3 0 12 0;
#X connect 3 0 15 0;
#X connect 3 0 19 0;
#X connect 4 0 5 1;
#X connect 5 0 1 0;
#X connect 6 0 7 0;
#X connect 7 0 1 0;
#X connect 8 0 16 0;
#X connect 9 0 8 0;
#X connect 10 0 11 0;
#X connect 11 0 6 0;
#X connect 12 0 13 0;
#X connect 13 0 14 0;
#X connect 14 0 5 0;
#X connect 15 0 0 0;
#X connect 16 0 7 1;
#X connect 17 0 4 0;
#X connect 18 0 2 0;
#X connect 19 0 20 0;
#X connect 20 0 21 0;
#X connect 21 0 22 0;
#X connect 22 0 1 0;
#X connect 23 0 3 0;
#X connect 23 0 26 0;
#X connect 24 0 23 0;
#X connect 26 0 18 0;
#X connect 26 0 17 0;
