#N canvas 122 214 450 300 10;
#X floatatom 118 82 5 0 0 0 - - -;
#X text 160 82 BPM;
#X floatatom 118 135 5 0 0 0 - - -;
#X text 160 135 ms;
#X obj 118 108 expr 60000 / $F1;
#X obj 91 161 metro;
#X obj 91 188 bng 15 250 50 0 empty empty empty 17 7 0 10 -262144 -1
-1;
#X obj 91 82 tgl 15 0 empty empty empty 17 7 0 10 -262144 -1 -1 0 1
;
#X obj 91 213 outlet;
#X obj 91 28 inlet;
#X obj 91 55 t b f;
#X connect 0 0 4 0;
#X connect 2 0 5 1;
#X connect 4 0 2 0;
#X connect 5 0 6 0;
#X connect 6 0 8 0;
#X connect 7 0 5 0;
#X connect 9 0 10 0;
#X connect 10 0 7 0;
#X connect 10 1 0 0;
